<svg width="90" height="40" viewBox="0 0 90 40" fill="none" xmlns="http://www.w3.org/2000/svg">
<path d="M63.2727 2.90909C63.2727 4.51574 61.9703 5.81818 60.3636 5.81818C58.757 5.81818 57.4545 4.51574 57.4545 2.90909C57.4545 1.30244 58.757 0 60.3636 0C61.9703 0 63.2727 1.30244 63.2727 2.90909Z" fill="black"/>
<path d="M62.5455 8V26.1818H58.1818V8H62.5455Z" fill="black"/>
<path d="M55.2727 26.1818V16C55.2727 11.5817 51.691 8 47.2727 8C44.9803 8 42.9131 8.9642 41.4545 10.5092C39.996 8.9642 37.9288 8 35.6364 8C31.2181 8 27.6364 11.5817 27.6364 16V26.1818H32V16C32 13.9917 33.6281 12.3636 35.6364 12.3636C37.6447 12.3636 39.2727 13.9917 39.2727 16V26.1818H43.6364V16C43.6364 13.9917 45.2644 12.3636 47.2727 12.3636C49.281 12.3636 50.9091 13.9917 50.9091 16V26.1818H55.2727Z" fill="black"/>
<path d="M88.7273 26.1818V8H84.3636V26.1818H88.7273Z" fill="black"/>
<path d="M81.4545 26.1818V16C81.4545 11.5817 77.8728 8 73.4545 8C69.0363 8 65.4545 11.5817 65.4545 16V26.1818H69.8182V16C69.8182 13.9917 71.4462 12.3636 73.4545 12.3636C75.4628 12.3636 77.0909 13.9917 77.0909 16V26.1818H81.4545Z" fill="black"/>
<path d="M86.5455 5.81818C88.1521 5.81818 89.4545 4.51574 89.4545 2.90909C89.4545 1.30244 88.1521 0 86.5455 0C84.9388 0 83.6364 1.30244 83.6364 2.90909C83.6364 4.51574 84.9388 5.81818 86.5455 5.81818Z" fill="black"/>
<path fill-rule="evenodd" clip-rule="evenodd" d="M20.9514 26.3489C23.2795 24.1006 24.7273 20.9466 24.7273 17.4545C24.7273 10.6263 19.1919 5.09091 12.3636 5.09091C5.53539 5.09091 0 10.6263 0 17.4545C0 23.7631 4.72491 28.9682 10.829 29.7239C10.4133 30.6394 10.1818 31.6563 10.1818 32.7273C10.1818 36.7439 13.4379 40 17.4545 40C21.4712 40 24.7273 36.7439 24.7273 32.7273C24.7273 29.9782 23.2019 27.5853 20.9514 26.3489ZM20.3636 17.4545C20.3636 21.8728 16.7819 25.4545 12.3636 25.4545C7.94536 25.4545 4.36364 21.8728 4.36364 17.4545C4.36364 13.0363 7.94536 9.45455 12.3636 9.45455C16.7819 9.45455 20.3636 13.0363 20.3636 17.4545ZM20.3636 32.7273C20.3636 34.3339 19.0612 35.6364 17.4545 35.6364C15.8479 35.6364 14.5455 34.3339 14.5455 32.7273C14.5455 31.1206 15.8479 29.8182 17.4545 29.8182C19.0612 29.8182 20.3636 31.1206 20.3636 32.7273Z" fill="black"/>
<path d="M29.1733 31.8291C29.273 31.8991 29.3295 31.9969 29.343 32.1224H29.8562C29.8534 31.9566 29.8069 31.81 29.7168 31.6825C29.6267 31.554 29.5026 31.4539 29.3444 31.382C29.1872 31.3092 29.0041 31.2727 28.7952 31.2727C28.5891 31.2727 28.4046 31.3092 28.2417 31.382C28.0787 31.4539 27.9498 31.555 27.8549 31.6854C27.761 31.8157 27.714 31.9676 27.714 32.1411C27.714 32.352 27.784 32.5212 27.9239 32.6487C28.0648 32.7752 28.2565 32.8696 28.499 32.9319L28.834 33.0182C28.9394 33.045 29.0315 33.0757 29.1101 33.1102C29.1896 33.1437 29.2514 33.1859 29.2955 33.2367C29.3396 33.2865 29.3621 33.3498 29.3631 33.4265C29.3621 33.5108 29.3367 33.5846 29.2869 33.6479C29.2371 33.7102 29.168 33.7591 29.0799 33.7945C28.9926 33.829 28.891 33.8463 28.7751 33.8463C28.6639 33.8463 28.5632 33.8295 28.4731 33.796C28.384 33.7624 28.3116 33.7116 28.256 33.6436C28.2004 33.5755 28.1688 33.4902 28.1611 33.3877H27.6364C27.644 33.5832 27.6948 33.749 27.7888 33.8851C27.8837 34.0212 28.015 34.1247 28.1827 34.1957C28.3514 34.2666 28.5503 34.3021 28.7794 34.3021C29.0152 34.3021 29.216 34.2656 29.3818 34.1928C29.5486 34.119 29.676 34.0169 29.7642 33.8866C29.8524 33.7552 29.8965 33.6033 29.8965 33.4308C29.8965 33.3033 29.8725 33.1921 29.8246 33.0972C29.7767 33.0023 29.7115 32.9213 29.6291 32.8542C29.5476 32.7872 29.4551 32.7316 29.3516 32.6875C29.249 32.6434 29.1422 32.6084 29.031 32.5825L28.7549 32.5135C28.6945 32.4991 28.6346 32.4814 28.5752 32.4603C28.5158 32.4392 28.4616 32.4133 28.4127 32.3827C28.3639 32.351 28.325 32.3127 28.2963 32.2676C28.2685 32.2226 28.2546 32.1694 28.2546 32.1081C28.2556 32.0343 28.2771 31.9686 28.3193 31.9111C28.3615 31.8536 28.4223 31.808 28.5019 31.7745C28.5814 31.741 28.6768 31.7242 28.788 31.7242C28.9461 31.7242 29.0746 31.7592 29.1733 31.8291Z" fill="black"/>
<path d="M31.0248 31.313H30.372V34.2575H30.8839V32.2303H30.9112L31.725 34.2489H32.1074L32.9212 32.2346H32.9485V34.2575H33.4603V31.313H32.8076L31.9334 33.4466H31.8989L31.0248 31.313Z" fill="black"/>
<path fill-rule="evenodd" clip-rule="evenodd" d="M34.4193 34.2575H33.8499L34.8866 31.313H35.545L36.5831 34.2575H36.0138L35.7698 33.5314H34.6628L34.4193 34.2575ZM35.2273 31.9168L35.6258 33.103H34.8065L35.2043 31.9168H35.2273Z" fill="black"/>
<path fill-rule="evenodd" clip-rule="evenodd" d="M36.9709 31.313V34.2575H37.5043V33.1792H38.0471L38.6258 34.2575H39.221L38.5841 33.0918C38.6033 33.084 38.622 33.0758 38.6402 33.067C38.7954 32.9913 38.9128 32.8844 38.9924 32.7464C39.0729 32.6074 39.1132 32.4435 39.1132 32.2547C39.1132 32.0668 39.0734 31.9025 38.9938 31.7616C38.9152 31.6197 38.7988 31.5095 38.6445 31.4309C38.4911 31.3523 38.3013 31.313 38.0751 31.313H36.9709ZM37.5043 32.7364H37.996C38.1283 32.7364 38.2366 32.7181 38.321 32.6817C38.4053 32.6443 38.4676 32.5902 38.5079 32.5193C38.5491 32.4474 38.5697 32.3592 38.5697 32.2547C38.5697 32.1502 38.5491 32.0611 38.5079 31.9873C38.4667 31.9125 38.4039 31.856 38.3195 31.8176C38.2352 31.7783 38.1264 31.7587 37.9932 31.7587H37.5043V32.7364Z" fill="black"/>
<path d="M39.4748 31.7601V31.313H41.824V31.7601H40.9139V34.2575H40.3849V31.7601H39.4748Z" fill="black"/>
<path d="M45.1546 32.0448C45.1968 32.1061 45.2298 32.1756 45.2538 32.2533H45.7972C45.7752 32.1085 45.7287 31.9763 45.6578 31.8565C45.5869 31.7366 45.4963 31.6331 45.3861 31.5459C45.2768 31.4587 45.1517 31.3916 45.0108 31.3446C44.8699 31.2967 44.718 31.2727 44.555 31.2727C44.3624 31.2727 44.1841 31.3072 44.0202 31.3762C43.8563 31.4443 43.7135 31.544 43.5917 31.6753C43.47 31.8057 43.3751 31.9643 43.3071 32.1512C43.24 32.3381 43.2064 32.5504 43.2064 32.7881C43.2064 33.0987 43.2635 33.367 43.3775 33.5933C43.4925 33.8185 43.6521 33.9925 43.8563 34.1152C44.0614 34.2369 44.2996 34.2977 44.5709 34.2977C44.8143 34.2977 45.03 34.2484 45.2178 34.1497C45.4057 34.05 45.5533 33.9081 45.6607 33.7241C45.768 33.5401 45.8217 33.322 45.8217 33.0699V32.7162H44.6269V33.1332H45.3054C45.3029 33.2682 45.2732 33.3866 45.2164 33.4883C45.157 33.5937 45.0721 33.6752 44.9619 33.7327C44.8527 33.7902 44.7233 33.819 44.5737 33.819C44.4089 33.819 44.2641 33.7792 44.1395 33.6996C44.0149 33.6191 43.9176 33.5017 43.8477 33.3474C43.7777 33.1931 43.7427 33.0047 43.7427 32.7824C43.7427 32.5619 43.7777 32.375 43.8477 32.2216C43.9186 32.0673 44.0159 31.9504 44.1395 31.8708C44.2632 31.7913 44.4041 31.7515 44.5622 31.7515C44.6504 31.7515 44.7319 31.763 44.8066 31.786C44.8814 31.808 44.9475 31.8411 45.0051 31.8852C45.0635 31.9293 45.1134 31.9825 45.1546 32.0448Z" fill="black"/>
<path fill-rule="evenodd" clip-rule="evenodd" d="M48.9686 32.7852C48.9686 33.1025 48.9091 33.3742 48.7903 33.6004C48.6724 33.8257 48.5114 33.9982 48.3072 34.118C48.104 34.2378 47.8735 34.2977 47.6156 34.2977C47.3578 34.2977 47.1268 34.2378 46.9226 34.118C46.7194 33.9973 46.5584 33.8242 46.4396 33.599C46.3217 33.3728 46.2627 33.1015 46.2627 32.7852C46.2627 32.468 46.3217 32.1967 46.4396 31.9715C46.5584 31.7453 46.7194 31.5723 46.9226 31.4524C47.1268 31.3326 47.3578 31.2727 47.6156 31.2727C47.8735 31.2727 48.104 31.3326 48.3072 31.4524C48.5114 31.5723 48.6724 31.7453 48.7903 31.9715C48.9091 32.1967 48.9686 32.468 48.9686 32.7852ZM48.4323 32.7852C48.4323 32.5619 48.3973 32.3736 48.3273 32.2202C48.2583 32.0659 48.1625 31.9494 48.0398 31.8708C47.9171 31.7913 47.7757 31.7515 47.6156 31.7515C47.4556 31.7515 47.3142 31.7913 47.1915 31.8708C47.0688 31.9494 46.9725 32.0659 46.9025 32.2202C46.8335 32.3736 46.799 32.5619 46.799 32.7852C46.799 33.0086 46.8335 33.1974 46.9025 33.3517C46.9725 33.5051 47.0688 33.6215 47.1915 33.7011C47.3142 33.7797 47.4556 33.819 47.6156 33.819C47.7757 33.819 47.9171 33.7797 48.0398 33.7011C48.1625 33.6215 48.2583 33.5051 48.3273 33.3517C48.3973 33.1974 48.4323 33.0086 48.4323 32.7852Z" fill="black"/>
<path d="M50.0063 31.313H49.4728V34.2575H51.3031V33.8104H50.0063V31.313Z" fill="black"/>
<path fill-rule="evenodd" clip-rule="evenodd" d="M52.7638 34.2575H51.7661V31.313H52.784C53.0763 31.313 53.3274 31.3719 53.5374 31.4898C53.7482 31.6068 53.9102 31.775 54.0233 31.9945C54.1364 32.214 54.193 32.4766 54.193 32.7824C54.193 33.0891 54.1359 33.3527 54.0219 33.5731C53.9088 33.7936 53.7453 33.9628 53.5316 34.0806C53.3188 34.1985 53.0629 34.2575 52.7638 34.2575ZM52.2995 33.796H52.738C52.9431 33.796 53.1142 33.7586 53.2512 33.6838C53.3883 33.6081 53.4914 33.4955 53.5604 33.346C53.6294 33.1955 53.6639 33.0076 53.6639 32.7824C53.6639 32.5571 53.6294 32.3702 53.5604 32.2216C53.4914 32.0721 53.3893 31.9605 53.2541 31.8866C53.1199 31.8119 52.9531 31.7745 52.7538 31.7745H52.2995V33.796Z" fill="black"/>
<path d="M55.0833 34.0131L55.102 33.8549H54.6419L54.6318 34.0159C54.6242 34.1453 54.6093 34.2728 54.5873 34.3984C54.5652 34.524 54.5422 34.6371 54.5183 34.7377L54.4636 34.9764H54.8144C54.8374 34.916 54.8676 34.8331 54.905 34.7276C54.9424 34.6222 54.9779 34.5067 55.0114 34.3811C55.0459 34.2565 55.0699 34.1338 55.0833 34.0131Z" fill="black"/>
<path fill-rule="evenodd" clip-rule="evenodd" d="M56.6213 31.313H57.7485C57.9613 31.313 58.1381 31.3465 58.279 31.4136C58.4209 31.4798 58.5268 31.5703 58.5968 31.6854C58.6677 31.8004 58.7032 31.9307 58.7032 32.0764C58.7032 32.1962 58.6802 32.2988 58.6342 32.3841C58.5882 32.4685 58.5263 32.537 58.4487 32.5897C58.3711 32.6424 58.2843 32.6803 58.1885 32.7033V32.732C58.2929 32.7378 58.3931 32.7699 58.489 32.8284C58.5858 32.8859 58.6648 32.9674 58.7262 33.0728C58.7875 33.1782 58.8182 33.3057 58.8182 33.4552C58.8182 33.6076 58.7813 33.7447 58.7075 33.8664C58.6337 33.9872 58.5225 34.0826 58.3739 34.1525C58.2254 34.2225 58.0385 34.2575 57.8132 34.2575H56.6213V31.313ZM57.1547 33.8118H57.7284C57.922 33.8118 58.0615 33.7749 58.1468 33.7011C58.233 33.6263 58.2762 33.5305 58.2762 33.4135C58.2762 33.3263 58.2546 33.2477 58.2115 33.1777C58.1683 33.1068 58.107 33.0512 58.0274 33.011C57.9479 32.9697 57.853 32.9491 57.7428 32.9491H57.1547V33.8118ZM57.1547 32.5653H57.6824C57.7744 32.5653 57.8573 32.5485 57.9311 32.5149C58.0049 32.4804 58.0629 32.432 58.1051 32.3697C58.1482 32.3065 58.1698 32.2317 58.1698 32.1454C58.1698 32.0314 58.1295 31.9374 58.049 31.8636C57.9694 31.7898 57.8511 31.7529 57.6939 31.7529H57.1547V32.5653Z" fill="black"/>
<path d="M61.1973 31.313H59.2822V34.2575H61.2088V33.8104H59.8156V33.0067H61.0981V32.5595H59.8156V31.7601H61.1973V31.313Z" fill="black"/>
<path d="M61.6121 31.7601V31.313H63.9614V31.7601H63.0513V34.2575H62.5222V31.7601H61.6121Z" fill="black"/>
<path d="M64.2849 31.313V31.7601H65.195V34.2575H65.7241V31.7601H66.6341V31.313H64.2849Z" fill="black"/>
<path d="M67.087 31.313H69.0021V31.7601H67.6204V32.5595H68.9029V33.0067H67.6204V33.8104H69.0136V34.2575H67.087V31.313Z" fill="black"/>
<path fill-rule="evenodd" clip-rule="evenodd" d="M70.6505 31.313H69.5463V34.2575H70.0797V33.1792H70.6225L71.2011 34.2575H71.7964L71.1595 33.0918C71.1787 33.084 71.1973 33.0758 71.2155 33.067C71.3708 32.9913 71.4882 32.8844 71.5678 32.7464C71.6483 32.6074 71.6885 32.4435 71.6885 32.2547C71.6885 32.0668 71.6488 31.9025 71.5692 31.7616C71.4906 31.6197 71.3742 31.5095 71.2198 31.4309C71.0665 31.3523 70.8767 31.313 70.6505 31.313ZM70.0797 32.7364H70.5714C70.7037 32.7364 70.812 32.7181 70.8963 32.6817C70.9807 32.6443 71.043 32.5902 71.0832 32.5193C71.1245 32.4474 71.1451 32.3592 71.1451 32.2547C71.1451 32.1502 71.1245 32.0611 71.0832 31.9873C71.042 31.9125 70.9792 31.856 70.8949 31.8176C70.8106 31.7783 70.7018 31.7587 70.5685 31.7587H70.0797V32.7364Z" fill="black"/>
<path d="M73.1838 31.313H75.0701V31.7601H73.7172V32.5595H74.9407V33.0067H73.7172V34.2575H73.1838V31.313Z" fill="black"/>
<path d="M77.9456 31.313H77.4122V33.1921C77.4122 33.3148 77.3854 33.4241 77.3317 33.5199C77.278 33.6158 77.2013 33.691 77.1017 33.7457C77.0029 33.7993 76.886 33.8262 76.7508 33.8262C76.6157 33.8262 76.4988 33.7993 76.4 33.7457C76.3013 33.691 76.2246 33.6158 76.17 33.5199C76.1163 33.4241 76.0895 33.3148 76.0895 33.1921V31.313H75.5561V33.2367C75.5561 33.4476 75.6054 33.633 75.7042 33.7931C75.8029 33.9532 75.9419 34.0783 76.1211 34.1683C76.3004 34.2575 76.5103 34.3021 76.7508 34.3021C76.9905 34.3021 77.1999 34.2575 77.3791 34.1683C77.5584 34.0783 77.6974 33.9532 77.7961 33.7931C77.8958 33.633 77.9456 33.4476 77.9456 33.2367V31.313Z" fill="black"/>
<path d="M78.396 31.7601V31.313H80.7453V31.7601H79.8352V34.2575H79.3061V31.7601H78.396Z" fill="black"/>
<path d="M83.5877 31.313H83.0543V33.1921C83.0543 33.3148 83.0274 33.4241 82.9738 33.5199C82.9201 33.6158 82.8434 33.691 82.7437 33.7457C82.645 33.7993 82.5281 33.8262 82.3929 33.8262C82.2578 33.8262 82.1408 33.7993 82.0421 33.7457C81.9434 33.691 81.8667 33.6158 81.8121 33.5199C81.7584 33.4241 81.7316 33.3148 81.7316 33.1921V31.313H81.1981V33.2367C81.1981 33.4476 81.2475 33.633 81.3462 33.7931C81.445 33.9532 81.5839 34.0783 81.7632 34.1683C81.9424 34.2575 82.1523 34.3021 82.3929 34.3021C82.6325 34.3021 82.842 34.2575 83.0212 34.1683C83.2005 34.0783 83.3394 33.9532 83.4382 33.7931C83.5378 33.633 83.5877 33.4476 83.5877 33.2367V31.313Z" fill="black"/>
<path fill-rule="evenodd" clip-rule="evenodd" d="M84.1675 31.313H85.2716C85.4979 31.313 85.6876 31.3523 85.841 31.4309C85.9953 31.5095 86.1118 31.6197 86.1904 31.7616C86.2699 31.9025 86.3097 32.0668 86.3097 32.2547C86.3097 32.4435 86.2694 32.6074 86.1889 32.7464C86.1094 32.8844 85.992 32.9913 85.8367 33.067L85.8172 33.0761C85.8108 33.079 85.8043 33.0819 85.7978 33.0846C85.7922 33.0871 85.7864 33.0894 85.7807 33.0918L86.4175 34.2575H85.8223L85.2436 33.1792H84.7009V34.2575H84.1675V31.313ZM85.1926 32.7364H84.7009V31.7587H85.1897C85.3229 31.7587 85.4317 31.7783 85.5161 31.8176C85.6004 31.856 85.6632 31.9125 85.7044 31.9873C85.7456 32.0611 85.7662 32.1502 85.7662 32.2547C85.7662 32.3592 85.7456 32.4474 85.7044 32.5193C85.6642 32.5902 85.6018 32.6443 85.5175 32.6817C85.4332 32.7181 85.3248 32.7364 85.1926 32.7364Z" fill="black"/>
<path d="M88.7158 31.313H86.8007V34.2575H88.7273V33.8104H87.3341V33.0067H88.6166V32.5595H87.3341V31.7601H88.7158V31.313Z" fill="black"/>
</svg>
