<svg width="3971" height="609" viewBox="0 0 3971 609" fill="none" xmlns="http://www.w3.org/2000/svg">
<path d="M963.315 44.3571C963.315 68.8155 943.486 88.6429 919.024 88.6429C894.563 88.6429 874.734 68.8155 874.734 44.3571C874.734 19.8988 894.563 0.0714264 919.024 0.0714264C943.486 0.0714264 963.315 19.8988 963.315 44.3571Z" fill="black"/>
<path d="M952.242 121.857V398.643H885.806V121.857H952.242Z" fill="black"/>
<path d="M841.516 398.643V243.643C841.516 176.382 786.986 121.857 719.718 121.857C684.817 121.857 653.344 136.535 631.137 160.055C608.93 136.535 577.457 121.857 542.556 121.857C475.288 121.857 420.758 176.382 420.758 243.643V398.643H487.194V243.643C487.194 213.07 511.981 188.286 542.556 188.286C573.132 188.286 597.919 213.07 597.919 243.643V398.643H664.355V243.643C664.355 213.07 689.142 188.286 719.718 188.286C750.294 188.286 775.081 213.07 775.081 243.643V398.643H841.516Z" fill="black"/>
<path d="M1350.85 398.643V121.857H1284.42V398.643H1350.85Z" fill="black"/>
<path d="M1240.13 398.643V243.643C1240.13 176.382 1185.6 121.857 1118.33 121.857C1051.06 121.857 996.532 176.382 996.532 243.643V398.643H1062.97V243.643C1062.97 213.07 1087.75 188.286 1118.33 188.286C1148.91 188.286 1173.69 213.07 1173.69 243.643V398.643H1240.13Z" fill="black"/>
<path d="M1317.64 88.6429C1342.1 88.6429 1361.93 68.8155 1361.93 44.3571C1361.93 19.8988 1342.1 0.0714264 1317.64 0.0714264C1293.18 0.0714264 1273.35 19.8988 1273.35 44.3571C1273.35 68.8155 1293.18 88.6429 1317.64 88.6429Z" fill="black"/>
<path fill-rule="evenodd" clip-rule="evenodd" d="M318.981 401.187C354.427 366.959 376.468 318.946 376.468 265.786C376.468 161.838 292.192 77.5714 188.234 77.5714C84.2752 77.5714 0 161.838 0 265.786C0 361.824 71.9359 441.06 164.869 452.565C158.541 466.502 155.016 481.982 155.016 498.286C155.016 559.431 204.59 609 265.742 609C326.894 609 376.468 559.431 376.468 498.286C376.468 456.436 353.244 420.009 318.981 401.187ZM310.032 265.786C310.032 333.047 255.502 387.571 188.234 387.571C120.966 387.571 66.4355 333.047 66.4355 265.786C66.4355 198.525 120.966 144 188.234 144C255.502 144 310.032 198.525 310.032 265.786ZM310.032 498.286C310.032 522.745 290.203 542.571 265.742 542.571C241.28 542.571 221.452 522.745 221.452 498.286C221.452 473.827 241.28 454 265.742 454C290.203 454 310.032 473.827 310.032 498.286Z" fill="black"/>
<path d="M444.159 484.612C445.676 485.678 446.537 487.168 446.741 489.079H454.556C454.512 486.554 453.803 484.322 452.432 482.38C451.059 480.425 449.17 478.9 446.763 477.806C444.369 476.696 441.581 476.143 438.401 476.143C435.263 476.143 432.455 476.696 429.973 477.806C427.492 478.9 425.53 480.441 424.084 482.425C422.656 484.409 421.941 486.723 421.941 489.362C421.941 492.573 423.006 495.148 425.136 497.088C427.282 499.014 430.201 500.451 433.892 501.401L438.992 502.714C440.598 503.122 441.997 503.589 443.196 504.114C444.407 504.625 445.348 505.267 446.019 506.04C446.69 506.8 447.033 507.763 447.047 508.93C447.033 510.214 446.646 511.337 445.886 512.3C445.129 513.25 444.077 513.994 442.735 514.532C441.406 515.059 439.86 515.32 438.095 515.32C436.401 515.32 434.869 515.066 433.498 514.554C432.141 514.045 431.038 513.27 430.192 512.236C429.346 511.199 428.865 509.9 428.748 508.339H420.758C420.875 511.315 421.648 513.839 423.079 515.911C424.523 517.984 426.522 519.561 429.076 520.639C431.645 521.719 434.672 522.26 438.16 522.26C441.749 522.26 444.808 521.704 447.332 520.595C449.87 519.472 451.812 517.918 453.154 515.934C454.496 513.934 455.167 511.622 455.167 508.996C455.167 507.054 454.804 505.363 454.073 503.917C453.345 502.473 452.353 501.24 451.097 500.219C449.857 499.198 448.448 498.35 446.872 497.679C445.31 497.008 443.683 496.477 441.991 496.082L437.788 495.031C436.869 494.811 435.956 494.544 435.053 494.222C434.147 493.901 433.323 493.507 432.579 493.04C431.835 492.557 431.244 491.975 430.805 491.289C430.382 490.602 430.17 489.794 430.17 488.859C430.185 487.737 430.513 486.736 431.155 485.861C431.797 484.984 432.725 484.291 433.934 483.782C435.146 483.271 436.598 483.016 438.29 483.016C440.7 483.016 442.655 483.547 444.159 484.612Z" fill="black"/>
<path d="M472.345 476.756H462.409V521.58H470.202V490.72H470.616L483.006 521.449H488.828L501.218 490.786H501.634V521.58H509.427V476.756H499.489L486.179 509.235H485.654L472.345 476.756Z" fill="black"/>
<path fill-rule="evenodd" clip-rule="evenodd" d="M524.028 521.58H515.358L531.141 476.756H541.166L556.971 521.58H548.303L544.587 510.529H527.735L524.028 521.58ZM536.329 485.948L542.397 504.005H529.923L535.979 485.948H536.329Z" fill="black"/>
<path fill-rule="evenodd" clip-rule="evenodd" d="M562.875 476.756V521.58H570.995V505.165H579.26L588.069 521.58H597.131L587.436 503.835C587.728 503.717 588.011 503.591 588.288 503.458C590.653 502.305 592.441 500.679 593.652 498.578C594.877 496.461 595.49 493.966 595.49 491.092C595.49 488.233 594.885 485.728 593.674 483.585C592.476 481.424 590.704 479.748 588.355 478.55C586.018 477.354 583.131 476.756 579.685 476.756H562.875ZM570.995 498.423H578.482C580.495 498.423 582.145 498.146 583.43 497.593C584.714 497.024 585.662 496.2 586.275 495.119C586.902 494.025 587.216 492.681 587.216 491.092C587.216 489.502 586.902 488.144 586.275 487.022C585.646 485.884 584.692 485.022 583.408 484.438C582.123 483.84 580.467 483.541 578.438 483.541H570.995V498.423Z" fill="black"/>
<path d="M600.995 483.563V476.756H636.762V483.563H622.906V521.58H614.852V483.563H600.995Z" fill="black"/>
<path d="M687.47 487.896C688.112 488.831 688.615 489.887 688.98 491.069H697.254C696.919 488.866 696.211 486.853 695.13 485.029C694.051 483.204 692.672 481.63 690.993 480.301C689.33 478.973 687.426 477.952 685.28 477.237C683.136 476.508 680.822 476.143 678.342 476.143C675.407 476.143 672.695 476.668 670.199 477.719C667.703 478.756 665.528 480.272 663.675 482.272C661.821 484.256 660.377 486.67 659.341 489.515C658.32 492.36 657.809 495.593 657.809 499.211C657.809 503.939 658.677 508.024 660.415 511.47C662.165 514.897 664.594 517.546 667.703 519.414C670.826 521.268 674.453 522.193 678.583 522.193C682.288 522.193 685.572 521.443 688.433 519.939C691.292 518.422 693.54 516.261 695.174 513.46C696.808 510.659 697.626 507.34 697.626 503.503V498.117H679.436V504.466H689.764C689.726 506.521 689.275 508.323 688.411 509.871C687.505 511.476 686.214 512.716 684.536 513.591C682.873 514.468 680.902 514.904 678.625 514.904C676.116 514.904 673.913 514.299 672.015 513.088C670.119 511.864 668.638 510.075 667.572 507.725C666.507 505.376 665.974 502.511 665.974 499.125C665.974 495.768 666.507 492.923 667.572 490.589C668.651 488.239 670.132 486.459 672.015 485.248C673.897 484.037 676.043 483.432 678.45 483.432C679.794 483.432 681.034 483.607 682.173 483.957C683.311 484.291 684.316 484.796 685.193 485.467C686.084 486.138 686.841 486.949 687.47 487.896Z" fill="black"/>
<path fill-rule="evenodd" clip-rule="evenodd" d="M745.537 499.169C745.537 503.999 744.631 508.135 742.822 511.578C741.028 515.008 738.577 517.634 735.467 519.456C732.374 521.281 728.864 522.193 724.94 522.193C721.013 522.193 717.497 521.281 714.387 519.456C711.294 517.619 708.842 514.986 707.033 511.556C705.237 508.113 704.34 503.983 704.34 499.169C704.34 494.338 705.237 490.208 707.033 486.78C708.842 483.337 711.294 480.702 714.387 478.88C717.497 477.055 721.013 476.143 724.94 476.143C728.864 476.143 732.374 477.055 735.467 478.88C738.577 480.702 741.028 483.337 742.822 486.78C744.631 490.208 745.537 494.338 745.537 499.169ZM737.372 499.169C737.372 495.768 736.838 492.901 735.773 490.567C734.723 488.217 733.264 486.444 731.395 485.248C729.528 484.037 727.376 483.432 724.94 483.432C722.501 483.432 720.349 484.037 718.482 485.248C716.613 486.444 715.147 488.217 714.082 490.567C713.03 492.901 712.505 495.768 712.505 499.169C712.505 502.568 713.03 505.442 714.082 507.792C715.147 510.125 716.613 511.899 718.482 513.11C720.349 514.306 722.501 514.904 724.94 514.904C727.376 514.904 729.528 514.306 731.395 513.11C733.264 511.899 734.723 510.125 735.773 507.792C736.838 505.442 737.372 502.568 737.372 499.169Z" fill="black"/>
<path d="M761.335 476.756H753.215V521.58H781.08V514.773H761.335V476.756Z" fill="black"/>
<path fill-rule="evenodd" clip-rule="evenodd" d="M803.318 521.58H788.128V476.756H803.626C808.077 476.756 811.899 477.653 815.095 479.449C818.306 481.229 820.773 483.789 822.493 487.13C824.216 490.472 825.078 494.471 825.078 499.125C825.078 503.793 824.21 507.807 822.471 511.162C820.75 514.519 818.261 517.094 815.008 518.887C811.768 520.683 807.871 521.58 803.318 521.58ZM796.249 514.554H802.926C806.048 514.554 808.653 513.985 810.739 512.847C812.827 511.695 814.395 509.979 815.447 507.703C816.496 505.414 817.021 502.553 817.021 499.125C817.021 495.695 816.496 492.85 815.447 490.589C814.395 488.313 812.84 486.612 810.783 485.489C808.741 484.351 806.201 483.782 803.165 483.782H796.249V514.554Z" fill="black"/>
<path d="M838.633 517.86L838.916 515.453H831.912L831.759 517.904C831.642 519.873 831.416 521.815 831.081 523.726C830.745 525.637 830.395 527.359 830.029 528.892L829.197 532.523H834.538C834.888 531.604 835.349 530.342 835.918 528.737C836.487 527.133 837.027 525.375 837.537 523.462C838.064 521.567 838.427 519.698 838.633 517.86Z" fill="black"/>
<path fill-rule="evenodd" clip-rule="evenodd" d="M862.049 476.756H879.209C882.449 476.756 885.142 477.266 887.286 478.289C889.447 479.294 891.059 480.673 892.124 482.425C893.205 484.176 893.743 486.16 893.743 488.377C893.743 490.201 893.393 491.762 892.694 493.062C891.994 494.346 891.053 495.389 889.87 496.191C888.687 496.995 887.368 497.57 885.908 497.92V498.359C887.498 498.445 889.024 498.935 890.483 499.825C891.956 500.699 893.161 501.941 894.095 503.545C895.028 505.15 895.495 507.092 895.495 509.368C895.495 511.687 894.932 513.775 893.81 515.628C892.687 517.466 890.993 518.918 888.732 519.984C886.469 521.049 883.623 521.58 880.195 521.58H862.049V476.756ZM870.17 514.795H878.904C881.851 514.795 883.975 514.233 885.273 513.11C886.586 511.972 887.244 510.513 887.244 508.733C887.244 507.404 886.914 506.208 886.258 505.143C885.6 504.063 884.668 503.217 883.457 502.604C882.245 501.977 880.799 501.663 879.123 501.663H870.17V514.795ZM870.17 495.819H878.202C879.604 495.819 880.866 495.564 881.989 495.053C883.114 494.528 883.995 493.791 884.637 492.843C885.295 491.88 885.623 490.742 885.623 489.429C885.623 487.693 885.009 486.262 883.785 485.139C882.573 484.015 880.771 483.452 878.377 483.452H870.17V495.819Z" fill="black"/>
<path d="M931.718 476.756H902.559V521.58H931.893V514.773H910.68V502.539H930.205V495.733H910.68V483.563H931.718V476.756Z" fill="black"/>
<path d="M938.031 483.563V476.756H973.798V483.563H959.944V521.58H951.888V483.563H938.031Z" fill="black"/>
<path d="M978.725 476.756V483.563H992.579V521.58H1000.64V483.563H1014.49V476.756H978.725Z" fill="black"/>
<path d="M1021.39 476.756H1050.54V483.563H1029.51V495.733H1049.03V502.539H1029.51V514.773H1050.72V521.58H1021.39V476.756Z" fill="black"/>
<path fill-rule="evenodd" clip-rule="evenodd" d="M1075.64 476.756H1058.83V521.58H1066.95V505.165H1075.21L1084.02 521.58H1093.09L1083.39 503.835C1083.68 503.717 1083.97 503.591 1084.24 503.458C1086.61 502.305 1088.39 500.679 1089.6 498.578C1090.83 496.461 1091.44 493.966 1091.44 491.092C1091.44 488.233 1090.84 485.728 1089.63 483.585C1088.43 481.424 1086.66 479.748 1084.31 478.55C1081.97 477.354 1079.08 476.756 1075.64 476.756ZM1066.95 498.423H1074.43C1076.45 498.423 1078.1 498.146 1079.38 497.593C1080.67 497.024 1081.62 496.2 1082.23 495.119C1082.86 494.025 1083.17 492.681 1083.17 491.092C1083.17 489.502 1082.86 488.144 1082.23 487.022C1081.6 485.884 1080.64 485.022 1079.36 484.438C1078.08 483.84 1076.42 483.541 1074.39 483.541H1066.95V498.423Z" fill="black"/>
<path d="M1114.21 476.756H1142.93V483.563H1122.33V495.733H1140.96V502.539H1122.33V521.58H1114.21V476.756Z" fill="black"/>
<path d="M1186.71 476.756H1178.59V505.363C1178.59 507.229 1178.18 508.894 1177.36 510.351C1176.54 511.811 1175.37 512.958 1173.86 513.788C1172.35 514.605 1170.57 515.015 1168.52 515.015C1166.46 515.015 1164.68 514.605 1163.17 513.788C1161.67 512.958 1160.5 511.811 1159.67 510.351C1158.86 508.894 1158.45 507.229 1158.45 505.363V476.756H1150.33V506.04C1150.33 509.251 1151.08 512.074 1152.58 514.512C1154.08 516.948 1156.2 518.852 1158.93 520.223C1161.66 521.58 1164.85 522.26 1168.52 522.26C1172.17 522.26 1175.35 521.58 1178.08 520.223C1180.81 518.852 1182.93 516.948 1184.43 514.512C1185.95 512.074 1186.71 509.251 1186.71 506.04V476.756Z" fill="black"/>
<path d="M1193.56 483.563V476.756H1229.33V483.563H1215.47V521.58H1207.42V483.563H1193.56Z" fill="black"/>
<path d="M1272.6 476.756H1264.48V505.363C1264.48 507.229 1264.08 508.894 1263.26 510.351C1262.44 511.811 1261.27 512.958 1259.76 513.788C1258.25 514.605 1256.47 515.015 1254.41 515.015C1252.36 515.015 1250.58 514.605 1249.07 513.788C1247.57 512.958 1246.4 511.811 1245.57 510.351C1244.76 508.894 1244.35 507.229 1244.35 505.363V476.756H1236.22V506.04C1236.22 509.251 1236.98 512.074 1238.48 514.512C1239.98 516.948 1242.1 518.852 1244.83 520.223C1247.56 521.58 1250.75 522.26 1254.41 522.26C1258.06 522.26 1261.25 521.58 1263.98 520.223C1266.71 518.852 1268.83 516.948 1270.33 514.512C1271.85 512.074 1272.6 509.251 1272.6 506.04V476.756Z" fill="black"/>
<path fill-rule="evenodd" clip-rule="evenodd" d="M1281.43 476.756H1298.24C1301.69 476.756 1304.58 477.354 1306.91 478.55C1309.26 479.748 1311.03 481.424 1312.23 483.585C1313.44 485.728 1314.05 488.233 1314.05 491.092C1314.05 493.966 1313.43 496.461 1312.21 498.578C1311 500.679 1309.21 502.305 1306.85 503.458L1306.55 503.596C1306.45 503.64 1306.35 503.684 1306.25 503.726C1306.17 503.764 1306.08 503.799 1305.99 503.835L1315.69 521.58H1306.63L1297.82 505.165H1289.55V521.58H1281.43V476.756ZM1297.04 498.423H1289.55V483.541H1297C1299.02 483.541 1300.68 483.84 1301.97 484.438C1303.25 485.022 1304.2 485.884 1304.83 487.022C1305.46 488.144 1305.77 489.502 1305.77 491.092C1305.77 492.681 1305.46 494.025 1304.83 495.119C1304.22 496.2 1303.27 497.024 1301.99 497.593C1300.7 498.146 1299.05 498.423 1297.04 498.423Z" fill="black"/>
<path d="M1350.68 476.756H1321.52V521.58H1350.85V514.773H1329.64V502.539H1349.17V495.733H1329.64V483.563H1350.68V476.756Z" fill="black"/>
<path fill-rule="evenodd" clip-rule="evenodd" d="M3914.36 74.9282C3919.11 74.9282 3927.48 76.0882 3927.48 68.5344C3927.48 62.579 3922.67 61.8151 3917.57 61.8151H3907.21V74.9282H3914.36ZM3931.81 95.5527H3926.25L3915.56 78.4646H3907.18V95.5527H3902.43V58.6324H3918.7C3922.26 58.6324 3925.02 59.0709 3927.84 60.6128C3930.21 61.8293 3931.78 65.0262 3931.78 68.5626C3931.78 76.1165 3926.62 78.4789 3920.68 78.4789L3931.81 95.5527ZM3943.72 76.9228C3943.69 69.351 3940.67 62.0987 3935.31 56.7446C3929.96 51.3904 3922.71 48.3677 3915.13 48.3342C3899.25 48.3342 3885.82 61.0513 3885.82 76.9228C3885.82 93.1763 3899.25 106.247 3915.13 106.247C3930.62 106.233 3943.72 93.1763 3943.72 76.9228ZM3882.23 76.9228C3882.23 72.6167 3883.08 68.3526 3884.73 64.3778C3886.39 60.403 3888.82 56.7965 3891.88 53.7675C3894.94 50.7384 3898.57 48.3472 3902.56 46.7321C3906.56 45.1171 3910.83 44.3105 3915.13 44.3592C3933.43 44.3592 3948.09 59.0709 3948.09 76.9228C3948.09 95.1709 3933.43 110.208 3915.13 110.208C3896.5 110.208 3882.23 95.1709 3882.23 76.9228ZM2778.8 379.642C2767.38 379.683 2756.06 377.463 2745.49 373.109C2734.93 368.755 2725.33 362.353 2717.25 354.273C2709.17 346.193 2702.77 336.594 2698.42 326.029C2694.07 315.464 2691.85 304.143 2691.89 292.717C2691.89 281.305 2694.13 270.006 2698.5 259.463C2702.87 248.921 2709.27 239.343 2717.34 231.277C2725.42 223.212 2735 216.817 2745.55 212.458C2756.09 208.099 2767.39 205.863 2778.8 205.876C2790.21 205.87 2801.5 208.112 2812.04 212.475C2822.58 216.837 2832.16 223.233 2840.22 231.298C2848.29 239.363 2854.68 248.939 2859.05 259.477C2863.41 270.016 2865.65 281.311 2865.65 292.717C2865.69 304.138 2863.48 315.455 2859.13 326.017C2854.78 336.579 2848.39 346.177 2840.32 354.257C2832.25 362.337 2822.66 368.739 2812.1 373.096C2801.54 377.453 2790.23 379.678 2778.8 379.642ZM2452.62 379.642C2404.62 379.642 2366.14 341.18 2366.14 292.717C2366.14 244.72 2404.62 205.876 2452.62 205.876C2500.61 205.876 2539.53 244.72 2539.53 292.717C2539.57 304.142 2537.35 315.462 2532.99 326.025C2528.64 336.588 2522.24 346.186 2514.16 354.265C2506.08 362.344 2496.49 368.746 2485.92 373.101C2475.36 377.457 2464.04 379.68 2452.62 379.642ZM3546.13 379.642C3498.13 379.642 3459.67 341.18 3459.67 292.717C3459.67 244.72 3498.13 205.876 3546.13 205.876C3593.73 205.876 3632.66 244.72 3632.66 292.717C3632.71 304.112 3630.5 315.405 3626.18 325.947C3621.85 336.49 3615.48 346.074 3607.45 354.15C3599.41 362.227 3589.85 368.636 3579.33 373.01C3568.81 377.385 3557.52 379.639 3546.13 379.642ZM3216.42 379.642C3204.98 379.712 3193.65 377.511 3183.07 373.167C3172.5 368.823 3162.89 362.422 3154.8 354.337C3146.72 346.251 3140.32 336.64 3135.98 326.063C3131.63 315.485 3129.43 304.151 3129.51 292.717C3129.47 281.298 3131.7 269.985 3136.06 259.43C3140.42 248.875 3146.82 239.286 3154.9 231.215C3162.97 223.144 3172.57 216.75 3183.13 212.401C3193.68 208.052 3205 205.835 3216.42 205.876C3227.83 205.868 3239.13 208.109 3249.67 212.47C3260.21 216.83 3269.79 223.225 3277.87 231.29C3285.94 239.354 3292.34 248.93 3296.71 259.47C3301.08 270.01 3303.33 281.307 3303.33 292.717C3303.37 304.141 3301.14 315.46 3296.79 326.022C3292.44 336.585 3286.04 346.182 3277.96 354.261C3269.88 362.34 3260.28 368.742 3249.72 373.098C3239.16 377.454 3227.84 379.678 3216.42 379.642ZM2866.1 412.206C2840.84 430.875 2810.23 440.887 2778.82 440.752C2697.04 440.752 2630.8 374.493 2630.8 292.717C2630.8 211.378 2697.04 145.148 2778.82 145.148C2811.33 145.148 2841.47 155.842 2865.66 173.694V51.913H2929.97V438.39H2866.1V412.206ZM3898.5 239.599C3894.91 215.353 3875.46 197.94 3844.55 197.94C3828.28 197.94 3792.97 203.457 3792.97 224.492C3792.97 255.853 3846.54 258.611 3859.61 259.432C3945.35 267.367 3970.32 305.066 3970.32 349.484C3970.32 382.415 3953.65 407 3929.87 424.47C3909.65 439.14 3867.99 445.081 3842.57 445.081C3786.21 445.081 3729.1 414.186 3721.55 344.292H3784.65C3788.16 377.252 3822.72 389.544 3842.17 389.544C3877.45 389.544 3902.46 374.493 3902.46 357.023C3902.46 329.255 3876.69 323.286 3839.36 319.339C3818.39 316.963 3778.25 309.805 3761.61 295.914C3742.99 281.244 3727.11 264.552 3727.11 236.006C3727.11 184.813 3767.17 144.356 3846.16 143.917C3911.61 143.535 3961.21 182.45 3962.75 239.147L3898.5 239.599ZM2539.91 412.206C2514.65 430.889 2484.03 440.902 2452.62 440.752C2370.5 440.752 2305.03 374.493 2305.03 292.717C2305.03 211.378 2370.5 145.148 2452.62 145.148C2485.18 145.148 2515.32 155.842 2539.91 173.694V145.544H2603.38V438.39H2539.91V412.206ZM3040.23 125.301V51.5169H2976.36V125.301H3040.23ZM3040.23 438.376V145.53H2976.36V438.376H3040.23ZM3632.66 412.206C3608.84 430.44 3578.71 440.752 3546.13 440.752C3464.41 440.752 3398.16 374.493 3398.16 292.717C3398.16 211.378 3464.41 145.148 3546.13 145.148C3578.71 145.148 3608.85 155.842 3632.66 173.694V145.544H3696.89V438.39H3633.44L3632.66 412.206ZM3303.71 412.206C3279.52 430.44 3249 440.752 3216.42 440.752C3135.08 440.752 3068.45 374.493 3068.45 292.717C3068.45 211.378 3135.08 145.148 3216.42 145.148C3249 145.148 3279.14 155.842 3303.71 173.694V51.913H3367.2V438.39H3303.71V412.206Z" fill="black"/>
<path d="M1721.54 23.4321L1881.62 263.063H1883.61L2043.69 23.4321H2063.58L1892.56 277.978L2063.58 532.523H2043.69L1883.61 292.892H1881.62L1721.54 532.523H1701.65L1872.67 277.978L1701.65 23.4321H1721.54Z" fill="black"/>
</svg>
