<svg width="3971" height="610" viewBox="0 0 3971 610" fill="none" xmlns="http://www.w3.org/2000/svg">
<path d="M963.315 44.4913C963.315 68.9496 943.486 88.777 919.024 88.777C894.563 88.777 874.734 68.9496 874.734 44.4913C874.734 20.0329 894.563 0.205566 919.024 0.205566C943.486 0.205566 963.315 20.0329 963.315 44.4913Z" fill="black"/>
<path d="M952.242 121.991V398.777H885.806V121.991H952.242Z" fill="black"/>
<path d="M841.516 398.777V243.777C841.516 176.517 786.986 121.991 719.718 121.991C684.817 121.991 653.344 136.67 631.137 160.189C608.93 136.67 577.457 121.991 542.556 121.991C475.288 121.991 420.758 176.517 420.758 243.777V398.777H487.194V243.777C487.194 213.204 511.981 188.42 542.556 188.42C573.132 188.42 597.919 213.204 597.919 243.777V398.777H664.355V243.777C664.355 213.204 689.142 188.42 719.718 188.42C750.294 188.42 775.081 213.204 775.081 243.777V398.777H841.516Z" fill="black"/>
<path d="M1350.85 398.777V121.991H1284.42V398.777H1350.85Z" fill="black"/>
<path d="M1240.13 398.777V243.777C1240.13 176.517 1185.6 121.991 1118.33 121.991C1051.06 121.991 996.532 176.517 996.532 243.777V398.777H1062.97V243.777C1062.97 213.204 1087.75 188.42 1118.33 188.42C1148.91 188.42 1173.69 213.204 1173.69 243.777V398.777H1240.13Z" fill="black"/>
<path d="M1317.64 88.777C1342.1 88.777 1361.93 68.9496 1361.93 44.4913C1361.93 20.0329 1342.1 0.205566 1317.64 0.205566C1293.18 0.205566 1273.35 20.0329 1273.35 44.4913C1273.35 68.9496 1293.18 88.777 1317.64 88.777Z" fill="black"/>
<path fill-rule="evenodd" clip-rule="evenodd" d="M318.981 401.321C354.427 367.093 376.468 319.08 376.468 265.92C376.468 161.972 292.192 77.7056 188.234 77.7056C84.2752 77.7056 0 161.972 0 265.92C0 361.958 71.9359 441.194 164.869 452.699C158.541 466.636 155.016 482.116 155.016 498.42C155.016 559.565 204.59 609.134 265.742 609.134C326.894 609.134 376.468 559.565 376.468 498.42C376.468 456.57 353.244 420.143 318.981 401.321ZM310.032 265.92C310.032 333.181 255.502 387.706 188.234 387.706C120.966 387.706 66.4355 333.181 66.4355 265.92C66.4355 198.659 120.966 144.134 188.234 144.134C255.502 144.134 310.032 198.659 310.032 265.92ZM310.032 498.42C310.032 522.879 290.203 542.706 265.742 542.706C241.28 542.706 221.452 522.879 221.452 498.42C221.452 473.961 241.28 454.134 265.742 454.134C290.203 454.134 310.032 473.961 310.032 498.42Z" fill="black"/>
<path d="M444.159 484.747C445.676 485.812 446.537 487.302 446.741 489.213H454.556C454.512 486.689 453.803 484.457 452.432 482.515C451.059 480.559 449.17 479.034 446.763 477.94C444.369 476.831 441.581 476.277 438.401 476.277C435.263 476.277 432.455 476.831 429.973 477.94C427.492 479.034 425.53 480.575 424.084 482.559C422.656 484.543 421.941 486.857 421.941 489.496C421.941 492.707 423.006 495.282 425.136 497.222C427.282 499.148 430.201 500.585 433.892 501.535L438.992 502.848C440.598 503.256 441.997 503.723 443.196 504.248C444.407 504.759 445.348 505.401 446.019 506.174C446.69 506.934 447.033 507.897 447.047 509.064C447.033 510.348 446.646 511.471 445.886 512.434C445.129 513.384 444.077 514.128 442.735 514.666C441.406 515.193 439.86 515.454 438.095 515.454C436.401 515.454 434.869 515.2 433.498 514.688C432.141 514.179 431.038 513.404 430.192 512.37C429.346 511.334 428.865 510.034 428.748 508.473H420.758C420.875 511.449 421.648 513.973 423.079 516.046C424.523 518.118 426.522 519.695 429.076 520.773C431.645 521.854 434.672 522.394 438.16 522.394C441.749 522.394 444.808 521.838 447.332 520.729C449.87 519.606 451.812 518.052 453.154 516.068C454.496 514.068 455.167 511.756 455.167 509.13C455.167 507.188 454.804 505.497 454.073 504.051C453.345 502.607 452.353 501.374 451.097 500.353C449.857 499.332 448.448 498.484 446.872 497.813C445.31 497.142 443.683 496.611 441.991 496.217L437.788 495.165C436.869 494.946 435.956 494.678 435.053 494.357C434.147 494.036 433.323 493.641 432.579 493.174C431.835 492.691 431.244 492.109 430.805 491.423C430.382 490.736 430.17 489.928 430.17 488.994C430.185 487.871 430.513 486.87 431.155 485.995C431.797 485.119 432.725 484.426 433.934 483.916C435.146 483.405 436.598 483.15 438.29 483.15C440.7 483.15 442.655 483.682 444.159 484.747Z" fill="black"/>
<path d="M472.345 476.89H462.409V521.714H470.202V490.854H470.616L483.006 521.584H488.828L501.218 490.92H501.634V521.714H509.427V476.89H499.489L486.179 509.369H485.654L472.345 476.89Z" fill="black"/>
<path fill-rule="evenodd" clip-rule="evenodd" d="M524.028 521.714H515.358L531.141 476.89H541.166L556.971 521.714H548.303L544.587 510.663H527.735L524.028 521.714ZM536.329 486.082L542.397 504.139H529.923L535.979 486.082H536.329Z" fill="black"/>
<path fill-rule="evenodd" clip-rule="evenodd" d="M562.875 476.89V521.714H570.995V505.3H579.26L588.069 521.714H597.131L587.436 503.969C587.728 503.852 588.011 503.725 588.288 503.592C590.653 502.439 592.441 500.814 593.652 498.712C594.877 496.595 595.49 494.1 595.49 491.226C595.49 488.367 594.885 485.863 593.674 483.719C592.476 481.558 590.704 479.882 588.355 478.684C586.018 477.488 583.131 476.89 579.685 476.89H562.875ZM570.995 498.557H578.482C580.495 498.557 582.145 498.28 583.43 497.727C584.714 497.158 585.662 496.334 586.275 495.253C586.902 494.16 587.216 492.816 587.216 491.226C587.216 489.636 586.902 488.278 586.275 487.156C585.646 486.018 584.692 485.156 583.408 484.572C582.123 483.974 580.467 483.675 578.438 483.675H570.995V498.557Z" fill="black"/>
<path d="M600.995 483.697V476.89H636.762V483.697H622.906V521.714H614.852V483.697H600.995Z" fill="black"/>
<path d="M687.47 488.03C688.112 488.965 688.615 490.021 688.98 491.203H697.254C696.919 489 696.211 486.987 695.13 485.163C694.051 483.338 692.672 481.764 690.993 480.435C689.33 479.107 687.426 478.086 685.28 477.371C683.136 476.642 680.822 476.277 678.342 476.277C675.407 476.277 672.695 476.802 670.199 477.854C667.703 478.89 665.528 480.407 663.675 482.406C661.821 484.39 660.377 486.804 659.341 489.649C658.32 492.494 657.809 495.727 657.809 499.345C657.809 504.073 658.677 508.158 660.415 511.604C662.165 515.031 664.594 517.68 667.703 519.549C670.826 521.402 674.453 522.327 678.583 522.327C682.288 522.327 685.572 521.577 688.433 520.073C691.292 518.557 693.54 516.395 695.174 513.594C696.808 510.793 697.626 507.474 697.626 503.637V498.252H679.436V504.6H689.764C689.726 506.655 689.275 508.457 688.411 510.005C687.505 511.61 686.214 512.85 684.536 513.725C682.873 514.602 680.902 515.038 678.625 515.038C676.116 515.038 673.913 514.434 672.015 513.222C670.119 511.998 668.638 510.209 667.572 507.859C666.507 505.51 665.974 502.645 665.974 499.259C665.974 495.902 666.507 493.057 667.572 490.723C668.651 488.374 670.132 486.593 672.015 485.382C673.897 484.171 676.043 483.566 678.45 483.566C679.794 483.566 681.034 483.741 682.173 484.091C683.311 484.426 684.316 484.93 685.193 485.601C686.084 486.272 686.841 487.083 687.47 488.03Z" fill="black"/>
<path fill-rule="evenodd" clip-rule="evenodd" d="M745.537 499.303C745.537 504.133 744.631 508.269 742.822 511.712C741.028 515.142 738.577 517.768 735.467 519.591C732.374 521.415 728.864 522.327 724.94 522.327C721.013 522.327 717.497 521.415 714.387 519.591C711.294 517.753 708.842 515.12 707.033 511.69C705.237 508.247 704.34 504.117 704.34 499.303C704.34 494.472 705.237 490.342 707.033 486.914C708.842 483.471 711.294 480.836 714.387 479.014C717.497 477.189 721.013 476.277 724.94 476.277C728.864 476.277 732.374 477.189 735.467 479.014C738.577 480.836 741.028 483.471 742.822 486.914C744.631 490.342 745.537 494.472 745.537 499.303ZM737.372 499.303C737.372 495.902 736.838 493.035 735.773 490.701C734.723 488.351 733.264 486.578 731.395 485.382C729.528 484.171 727.376 483.566 724.94 483.566C722.501 483.566 720.349 484.171 718.482 485.382C716.613 486.578 715.147 488.351 714.082 490.701C713.03 493.035 712.505 495.902 712.505 499.303C712.505 502.702 713.03 505.576 714.082 507.926C715.147 510.26 716.613 512.033 718.482 513.244C720.349 514.44 722.501 515.038 724.94 515.038C727.376 515.038 729.528 514.44 731.395 513.244C733.264 512.033 734.723 510.26 735.773 507.926C736.838 505.576 737.372 502.702 737.372 499.303Z" fill="black"/>
<path d="M761.335 476.89H753.215V521.714H781.08V514.907H761.335V476.89Z" fill="black"/>
<path fill-rule="evenodd" clip-rule="evenodd" d="M803.318 521.714H788.128V476.89H803.626C808.077 476.89 811.899 477.787 815.095 479.583C818.306 481.363 820.773 483.923 822.493 487.264C824.216 490.606 825.078 494.605 825.078 499.259C825.078 503.927 824.21 507.941 822.471 511.296C820.75 514.653 818.261 517.228 815.008 519.022C811.768 520.817 807.871 521.714 803.318 521.714ZM796.249 514.688H802.926C806.048 514.688 808.653 514.119 810.739 512.981C812.827 511.83 814.395 510.114 815.447 507.837C816.496 505.548 817.021 502.687 817.021 499.259C817.021 495.829 816.496 492.984 815.447 490.723C814.395 488.447 812.84 486.746 810.783 485.624C808.741 484.485 806.201 483.916 803.165 483.916H796.249V514.688Z" fill="black"/>
<path d="M838.633 517.994L838.916 515.587H831.912L831.759 518.038C831.642 520.007 831.416 521.949 831.081 523.86C830.745 525.771 830.395 527.493 830.029 529.026L829.197 532.657H834.538C834.888 531.738 835.349 530.476 835.918 528.871C836.487 527.268 837.027 525.509 837.537 523.596C838.064 521.701 838.427 519.832 838.633 517.994Z" fill="black"/>
<path fill-rule="evenodd" clip-rule="evenodd" d="M862.049 476.89H879.209C882.449 476.89 885.142 477.4 887.286 478.423C889.447 479.428 891.059 480.807 892.124 482.559C893.205 484.31 893.743 486.294 893.743 488.511C893.743 490.336 893.393 491.897 892.694 493.196C891.994 494.481 891.053 495.524 889.87 496.325C888.687 497.129 887.368 497.705 885.908 498.055V498.493C887.498 498.579 889.024 499.069 890.483 499.959C891.956 500.833 893.161 502.076 894.095 503.679C895.028 505.284 895.495 507.226 895.495 509.502C895.495 511.821 894.932 513.909 893.81 515.762C892.687 517.6 890.993 519.053 888.732 520.118C886.469 521.183 883.623 521.714 880.195 521.714H862.049V476.89ZM870.17 514.93H878.904C881.851 514.93 883.975 514.367 885.273 513.245C886.586 512.106 887.244 510.647 887.244 508.867C887.244 507.538 886.914 506.343 886.258 505.278C885.6 504.197 884.668 503.351 883.457 502.738C882.245 502.111 880.799 501.797 879.123 501.797H870.17V514.93ZM870.17 495.953H878.202C879.604 495.953 880.866 495.699 881.989 495.187C883.114 494.662 883.995 493.925 884.637 492.977C885.295 492.014 885.623 490.876 885.623 489.563C885.623 487.827 885.009 486.396 883.785 485.274C882.573 484.149 880.771 483.586 878.377 483.586H870.17V495.953Z" fill="black"/>
<path d="M931.718 476.89H902.559V521.714H931.893V514.907H910.68V502.674H930.205V495.867H910.68V483.697H931.718V476.89Z" fill="black"/>
<path d="M938.031 483.697V476.89H973.798V483.697H959.944V521.714H951.888V483.697H938.031Z" fill="black"/>
<path d="M978.725 476.89V483.697H992.579V521.714H1000.64V483.697H1014.49V476.89H978.725Z" fill="black"/>
<path d="M1021.39 476.89H1050.54V483.697H1029.51V495.867H1049.03V502.674H1029.51V514.907H1050.72V521.714H1021.39V476.89Z" fill="black"/>
<path fill-rule="evenodd" clip-rule="evenodd" d="M1075.64 476.89H1058.83V521.714H1066.95V505.3H1075.21L1084.02 521.714H1093.09L1083.39 503.969C1083.68 503.852 1083.97 503.725 1084.24 503.592C1086.61 502.439 1088.39 500.814 1089.6 498.712C1090.83 496.595 1091.44 494.1 1091.44 491.226C1091.44 488.367 1090.84 485.863 1089.63 483.719C1088.43 481.558 1086.66 479.882 1084.31 478.684C1081.97 477.488 1079.08 476.89 1075.64 476.89ZM1066.95 498.557H1074.43C1076.45 498.557 1078.1 498.28 1079.38 497.727C1080.67 497.158 1081.62 496.334 1082.23 495.253C1082.86 494.16 1083.17 492.816 1083.17 491.226C1083.17 489.636 1082.86 488.278 1082.23 487.156C1081.6 486.018 1080.64 485.156 1079.36 484.572C1078.08 483.974 1076.42 483.675 1074.39 483.675H1066.95V498.557Z" fill="black"/>
<path d="M1114.21 476.89H1142.93V483.697H1122.33V495.867H1140.96V502.674H1122.33V521.714H1114.21V476.89Z" fill="black"/>
<path d="M1186.71 476.89H1178.59V505.497C1178.59 507.363 1178.18 509.029 1177.36 510.486C1176.54 511.945 1175.37 513.092 1173.86 513.922C1172.35 514.739 1170.57 515.149 1168.52 515.149C1166.46 515.149 1164.68 514.739 1163.17 513.922C1161.67 513.092 1160.5 511.945 1159.67 510.486C1158.86 509.029 1158.45 507.363 1158.45 505.497V476.89H1150.33V506.174C1150.33 509.385 1151.08 512.208 1152.58 514.646C1154.08 517.082 1156.2 518.986 1158.93 520.357C1161.66 521.714 1164.85 522.394 1168.52 522.394C1172.17 522.394 1175.35 521.714 1178.08 520.357C1180.81 518.986 1182.93 517.082 1184.43 514.646C1185.95 512.208 1186.71 509.385 1186.71 506.174V476.89Z" fill="black"/>
<path d="M1193.56 483.697V476.89H1229.33V483.697H1215.47V521.714H1207.42V483.697H1193.56Z" fill="black"/>
<path d="M1272.6 476.89H1264.48V505.497C1264.48 507.363 1264.08 509.029 1263.26 510.486C1262.44 511.945 1261.27 513.092 1259.76 513.922C1258.25 514.739 1256.47 515.149 1254.41 515.149C1252.36 515.149 1250.58 514.739 1249.07 513.922C1247.57 513.092 1246.4 511.945 1245.57 510.486C1244.76 509.029 1244.35 507.363 1244.35 505.497V476.89H1236.22V506.174C1236.22 509.385 1236.98 512.208 1238.48 514.646C1239.98 517.082 1242.1 518.986 1244.83 520.357C1247.56 521.714 1250.75 522.394 1254.41 522.394C1258.06 522.394 1261.25 521.714 1263.98 520.357C1266.71 518.986 1268.83 517.082 1270.33 514.646C1271.85 512.208 1272.6 509.385 1272.6 506.174V476.89Z" fill="black"/>
<path fill-rule="evenodd" clip-rule="evenodd" d="M1281.43 476.89H1298.24C1301.69 476.89 1304.58 477.488 1306.91 478.684C1309.26 479.882 1311.03 481.558 1312.23 483.719C1313.44 485.863 1314.05 488.367 1314.05 491.226C1314.05 494.1 1313.43 496.595 1312.21 498.712C1311 500.814 1309.21 502.439 1306.85 503.592L1306.55 503.73C1306.45 503.774 1306.35 503.818 1306.25 503.86C1306.17 503.898 1306.08 503.933 1305.99 503.969L1315.69 521.714H1306.63L1297.82 505.3H1289.55V521.714H1281.43V476.89ZM1297.04 498.557H1289.55V483.675H1297C1299.02 483.675 1300.68 483.974 1301.97 484.572C1303.25 485.156 1304.2 486.018 1304.83 487.156C1305.46 488.278 1305.77 489.636 1305.77 491.226C1305.77 492.816 1305.46 494.16 1304.83 495.253C1304.22 496.334 1303.27 497.158 1301.99 497.727C1300.7 498.28 1299.05 498.557 1297.04 498.557Z" fill="black"/>
<path d="M1350.68 476.89H1321.52V521.714H1350.85V514.907H1329.64V502.674H1349.17V495.867H1329.64V483.697H1350.68V476.89Z" fill="black"/>
<path fill-rule="evenodd" clip-rule="evenodd" d="M3920.44 104.953C3924.68 104.953 3932.14 105.986 3932.14 99.2539C3932.14 93.9461 3927.85 93.2653 3923.3 93.2653H3914.07V104.953H3920.44ZM3936 123.335H3931.04L3921.51 108.104H3914.05V123.335H3909.81V90.4286H3924.31C3927.49 90.4286 3929.95 90.8194 3932.46 92.1937C3934.57 93.2779 3935.97 96.1272 3935.97 99.2791C3935.97 106.012 3931.37 108.117 3926.08 108.117L3936 123.335ZM3946.62 106.73C3946.59 99.9818 3943.89 93.5181 3939.12 88.7461C3934.35 83.9741 3927.88 81.28 3921.14 81.2502C3906.98 81.2502 3895.01 92.5845 3895.01 106.73C3895.01 121.217 3906.98 132.866 3921.14 132.866C3934.94 132.853 3946.62 121.217 3946.62 106.73ZM3891.81 106.73C3891.81 102.892 3892.56 99.0919 3894.04 95.5493C3895.52 92.0067 3897.68 88.7924 3900.41 86.0927C3903.14 83.393 3906.37 81.2617 3909.93 79.8223C3913.49 78.3829 3917.3 77.664 3921.14 77.7074C3937.44 77.7074 3950.51 90.8194 3950.51 106.73C3950.51 122.994 3937.44 136.396 3921.14 136.396C3904.53 136.396 3891.81 122.994 3891.81 106.73ZM2908.36 376.535C2898.18 376.571 2888.09 374.592 2878.67 370.712C2869.26 366.831 2860.7 361.126 2853.5 353.924C2846.3 346.722 2840.6 338.167 2836.72 328.751C2832.84 319.335 2830.86 309.244 2830.9 299.06C2830.9 288.89 2832.9 278.819 2836.79 269.423C2840.68 260.027 2846.39 251.49 2853.58 244.302C2860.78 237.113 2869.32 231.413 2878.72 227.529C2888.12 223.644 2898.19 221.65 2908.36 221.662C2918.53 221.657 2928.59 223.655 2937.98 227.543C2947.38 231.431 2955.91 237.132 2963.1 244.32C2970.29 251.508 2975.99 260.043 2979.88 269.435C2983.76 278.828 2985.76 288.895 2985.76 299.06C2985.8 309.24 2983.83 319.327 2979.95 328.74C2976.08 338.154 2970.38 346.708 2963.19 353.909C2955.99 361.11 2947.44 366.817 2938.03 370.7C2928.62 374.584 2918.54 376.566 2908.36 376.535ZM2617.64 376.535C2574.86 376.535 2540.57 342.254 2540.57 299.06C2540.57 256.283 2574.86 221.662 2617.64 221.662C2660.42 221.662 2695.1 256.283 2695.1 299.06C2695.14 309.243 2693.16 319.332 2689.28 328.747C2685.4 338.162 2679.69 346.716 2672.49 353.917C2665.29 361.118 2656.74 366.823 2647.33 370.705C2637.91 374.587 2627.82 376.568 2617.64 376.535ZM3592.25 376.535C3549.47 376.535 3515.19 342.254 3515.19 299.06C3515.19 256.283 3549.47 221.662 3592.25 221.662C3634.68 221.662 3669.37 256.283 3669.37 299.06C3669.42 309.217 3667.45 319.282 3663.6 328.678C3659.74 338.074 3654.07 346.616 3646.9 353.814C3639.74 361.012 3631.22 366.725 3621.84 370.624C3612.46 374.523 3602.41 376.531 3592.25 376.535ZM3298.39 376.535C3288.2 376.597 3278.1 374.635 3268.67 370.763C3259.24 366.892 3250.68 361.187 3243.48 353.98C3236.27 346.774 3230.57 338.208 3226.7 328.781C3222.83 319.353 3220.87 309.251 3220.93 299.06C3220.9 288.883 3222.89 278.801 3226.77 269.393C3230.65 259.986 3236.36 251.44 3243.56 244.246C3250.76 237.052 3259.31 231.354 3268.72 227.478C3278.13 223.602 3288.21 221.625 3298.39 221.662C3308.56 221.655 3318.63 223.652 3328.03 227.539C3337.42 231.425 3345.96 237.125 3353.16 244.313C3360.35 251.5 3366.06 260.035 3369.95 269.429C3373.85 278.822 3375.85 288.891 3375.85 299.06C3375.89 309.243 3373.91 319.331 3370.02 328.745C3366.14 338.159 3360.44 346.712 3353.24 353.913C3346.04 361.113 3337.49 366.819 3328.07 370.702C3318.66 374.584 3308.57 376.566 3298.39 376.535ZM2986.16 405.558C2963.65 422.197 2936.37 431.12 2908.37 431C2835.49 431 2776.45 371.945 2776.45 299.06C2776.45 226.566 2835.49 167.537 2908.37 167.537C2937.35 167.537 2964.21 177.069 2985.77 192.979V84.4399H3043.09V428.894H2986.16V405.558ZM3906.31 251.719C3903.11 230.109 3885.77 214.589 3858.22 214.589C3843.72 214.589 3812.26 219.506 3812.26 238.254C3812.26 266.205 3860 268.663 3871.65 269.395C3948.07 276.468 3970.32 310.067 3970.32 349.655C3970.32 379.006 3955.47 400.918 3934.27 416.488C3916.24 429.563 3879.11 434.858 3856.46 434.858C3806.23 434.858 3755.33 407.323 3748.6 345.028H3804.84C3807.97 374.404 3838.77 385.36 3856.1 385.36C3887.55 385.36 3909.84 371.945 3909.84 356.375C3909.84 331.626 3886.87 326.306 3853.6 322.788C3834.91 320.67 3799.13 314.291 3784.3 301.91C3767.71 288.836 3753.55 273.959 3753.55 248.516C3753.55 202.889 3789.26 166.831 3859.66 166.44C3918 166.1 3962.2 200.784 3963.57 251.315L3906.31 251.719ZM2695.44 405.558C2672.93 422.209 2645.64 431.134 2617.64 431C2544.45 431 2486.1 371.945 2486.1 299.06C2486.1 226.566 2544.45 167.537 2617.64 167.537C2646.66 167.537 2673.53 177.069 2695.44 192.979V167.89H2752.01V428.894H2695.44V405.558ZM3141.36 149.849V84.0869H3084.44V149.849H3141.36ZM3141.36 428.882V167.878H3084.44V428.882H3141.36ZM3669.37 405.558C3648.14 421.809 3621.29 431 3592.25 431C3519.42 431 3460.37 371.945 3460.37 299.06C3460.37 226.566 3519.42 167.537 3592.25 167.537C3621.29 167.537 3648.15 177.069 3669.37 192.979V167.89H3726.62V428.894H3670.07L3669.37 405.558ZM3376.19 405.558C3354.63 421.809 3327.43 431 3298.39 431C3225.9 431 3166.51 371.945 3166.51 299.06C3166.51 226.566 3225.9 167.537 3298.39 167.537C3327.43 167.537 3354.29 177.069 3376.19 192.979V84.4399H3432.78V428.894H3376.19V405.558Z" fill="black"/>
<path d="M1824.08 44.4913L1984.16 284.122H1986.15L2146.24 44.4913H2166.12L1995.1 299.037L2166.12 553.582H2146.24L1986.15 313.952H1984.16L1824.08 553.582H1804.19L1975.22 299.037L1804.19 44.4913H1824.08Z" fill="black"/>
</svg>
